  0
SECTION
  2
HEADER
  9
$ACADVER
  1
AC1009
  9
$EXTMIN
 10
0
 20
0
  9
$EXTMAX
 10
1682.33
 20
952.736
  0
ENDSEC
  0
SECTION
  2
TABLES
  0
TABLE
  2
LAYER
 70
 2
  0
LAYER
  2
Design
 70
64
 62
7
  6
CONTINUOUS
  0
LAYER
  2
Annotation
 70
64
 62
7
  6
CONTINUOUS
  0
ENDTAB
  0
ENDSEC
  0
SECTION
  2
BLOCKS
  0
BLOCK
  8
0
  2
*D1
 70
1
 10
0
 20
0
 30
0
  3
*D1
 1

  0
LINE
  8
Annotation
  6
CONTINUOUS
 62
20
 10
235.52
 20
419.718
 11
335.269
 21
419.718
  0
LINE
  8
Annotation
  6
CONTINUOUS
 62
20
 10
335.175
 20
409.37
 11
332.918
 21
419.718
  0
LINE
  8
Annotation
  6
CONTINUOUS
 62
20
 10
332.918
 20
419.718
 11
330.66
 21
409.37
  0
TEXT
  8
Annotation
  6
CONTINUOUS
 62
20
 10
329.237
 20
378.951
 40
10.634
 41
0.9
 50
90
  1
70
 72
0
  0
LINE
  8
Annotation
  6
CONTINUOUS
 62
20
 10
332.918
 20
419.718
 11
332.918
 21
349.718
  0
LINE
  8
Annotation
  6
CONTINUOUS
 62
20
 10
330.66
 20
360.066
 11
332.918
 21
349.718
  0
LINE
  8
Annotation
  6
CONTINUOUS
 62
20
 10
332.918
 20
349.718
 11
335.175
 21
360.066
  0
LINE
  8
Annotation
  6
CONTINUOUS
 62
20
 10
335.269
 20
349.718
 11
300.889
 21
349.718
  0
ENDBLK
  0
BLOCK
  8
0
  2
*D2
 70
1
 10
0
 20
0
 30
0
  3
*D2
 1

  0
LINE
  8
Annotation
  6
CONTINUOUS
 62
20
 10
335.175
 20
339.37
 11
332.918
 21
349.718
  0
LINE
  8
Annotation
  6
CONTINUOUS
 62
20
 10
332.918
 20
349.718
 11
330.66
 21
339.37
  0
TEXT
  8
Annotation
  6
CONTINUOUS
 62
20
 10
329.237
 20
303.951
 40
10.634
 41
0.9
 50
90
  1
80
 72
0
  0
LINE
  8
Annotation
  6
CONTINUOUS
 62
20
 10
332.918
 20
349.718
 11
332.918
 21
269.718
  0
LINE
  8
Annotation
  6
CONTINUOUS
 62
20
 10
330.66
 20
280.066
 11
332.918
 21
269.718
  0
LINE
  8
Annotation
  6
CONTINUOUS
 62
20
 10
332.918
 20
269.718
 11
335.175
 21
280.066
  0
LINE
  8
Annotation
  6
CONTINUOUS
 62
20
 10
335.269
 20
269.718
 11
300.889
 21
269.718
  0
ENDBLK
  0
BLOCK
  8
0
  2
*D3
 70
1
 10
0
 20
0
 30
0
  3
*D3
 1

  0
LINE
  8
Annotation
  6
CONTINUOUS
 62
20
 10
335.175
 20
259.37
 11
332.918
 21
269.718
  0
LINE
  8
Annotation
  6
CONTINUOUS
 62
20
 10
332.918
 20
269.718
 11
330.66
 21
259.37
  0
TEXT
  8
Annotation
  6
CONTINUOUS
 62
20
 10
329.237
 20
228.951
 40
10.634
 41
0.9
 50
90
  1
70
 72
0
  0
LINE
  8
Annotation
  6
CONTINUOUS
 62
20
 10
332.918
 20
269.718
 11
332.918
 21
199.718
  0
LINE
  8
Annotation
  6
CONTINUOUS
 62
20
 10
330.66
 20
210.066
 11
332.918
 21
199.718
  0
LINE
  8
Annotation
  6
CONTINUOUS
 62
20
 10
332.918
 20
199.718
 11
335.175
 21
210.066
  0
LINE
  8
Annotation
  6
CONTINUOUS
 62
20
 10
335.269
 20
199.718
 11
235.52
 21
199.718
  0
ENDBLK
  0
BLOCK
  8
0
  2
*D4
 70
1
 10
0
 20
0
 30
0
  3
*D4
 1

  0
LINE
  8
Annotation
  6
CONTINUOUS
 62
20
 10
0
 20
264.654
 11
0
 21
171.047
  0
LINE
  8
Annotation
  6
CONTINUOUS
 62
20
 10
10.282
 20
175.627
 11
0
 21
173.384
  0
LINE
  8
Annotation
  6
CONTINUOUS
 62
20
 10
0
 20
173.384
 11
10.282
 21
171.14
  0
TEXT
  8
Annotation
  6
CONTINUOUS
 62
20
 10
29.27
 20
177.041
 40
10.566
 41
0.9
 50
0
  1
70
 72
0
  0
LINE
  8
Annotation
  6
CONTINUOUS
 62
20
 10
0
 20
173.384
 11
70
 21
173.384
  0
LINE
  8
Annotation
  6
CONTINUOUS
 62
20
 10
59.718
 20
171.14
 11
70
 21
173.384
  0
LINE
  8
Annotation
  6
CONTINUOUS
 62
20
 10
70
 20
173.384
 11
59.718
 21
175.627
  0
LINE
  8
Annotation
  6
CONTINUOUS
 62
20
 10
70
 20
171.047
 11
70
 21
195.654
  0
ENDBLK
  0
BLOCK
  8
0
  2
*D5
 70
1
 10
0
 20
0
 30
0
  3
*D5
 1

  0
LINE
  8
Annotation
  6
CONTINUOUS
 62
20
 10
80.282
 20
175.627
 11
70
 21
173.384
  0
LINE
  8
Annotation
  6
CONTINUOUS
 62
20
 10
70
 20
173.384
 11
80.282
 21
171.14
  0
TEXT
  8
Annotation
  6
CONTINUOUS
 62
20
 10
135.206
 20
177.041
 40
10.566
 41
0.9
 50
0
  1
150
 72
0
  0
LINE
  8
Annotation
  6
CONTINUOUS
 62
20
 10
70
 20
173.384
 11
220
 21
173.384
  0
LINE
  8
Annotation
  6
CONTINUOUS
 62
20
 10
209.718
 20
171.14
 11
220
 21
173.384
  0
LINE
  8
Annotation
  6
CONTINUOUS
 62
20
 10
220
 20
173.384
 11
209.718
 21
175.627
  0
LINE
  8
Annotation
  6
CONTINUOUS
 62
20
 10
220
 20
171.047
 11
220
 21
195.654
  0
ENDBLK
  0
BLOCK
  8
0
  2
*D6
 70
1
 10
0
 20
0
 30
0
  3
*D6
 1

  0
LINE
  8
Annotation
  6
CONTINUOUS
 62
20
 10
230.282
 20
175.627
 11
220
 21
173.384
  0
LINE
  8
Annotation
  6
CONTINUOUS
 62
20
 10
220
 20
173.384
 11
230.282
 21
171.14
  0
TEXT
  8
Annotation
  6
CONTINUOUS
 62
20
 10
249.27
 20
177.041
 40
10.566
 41
0.9
 50
0
  1
70
 72
0
  0
LINE
  8
Annotation
  6
CONTINUOUS
 62
20
 10
220
 20
173.384
 11
290
 21
173.384
  0
LINE
  8
Annotation
  6
CONTINUOUS
 62
20
 10
279.718
 20
171.14
 11
290
 21
173.384
  0
LINE
  8
Annotation
  6
CONTINUOUS
 62
20
 10
290
 20
173.384
 11
279.718
 21
175.627
  0
LINE
  8
Annotation
  6
CONTINUOUS
 62
20
 10
290
 20
171.047
 11
290
 21
264.654
  0
ENDBLK
  0
BLOCK
  8
0
  2
*D7
 70
1
 10
0
 20
0
 30
0
  3
*D7
 1

  0
LINE
  8
Annotation
  6
CONTINUOUS
 62
20
 10
419.992
 20
782.259
 11
512.606
 21
782.259
  0
LINE
  8
Annotation
  6
CONTINUOUS
 62
20
 10
512.513
 20
771.977
 11
510.269
 21
782.259
  0
LINE
  8
Annotation
  6
CONTINUOUS
 62
20
 10
510.269
 20
782.259
 11
508.026
 21
771.977
  0
TEXT
  8
Annotation
  6
CONTINUOUS
 62
20
 10
506.612
 20
742.151
 40
10.566
 41
0.9
 50
90
  1
52.5
 72
0
  0
LINE
  8
Annotation
  6
CONTINUOUS
 62
20
 10
510.269
 20
782.259
 11
510.269
 21
729.759
  0
LINE
  8
Annotation
  6
CONTINUOUS
 62
20
 10
508.026
 20
740.041
 11
510.269
 21
729.759
  0
LINE
  8
Annotation
  6
CONTINUOUS
 62
20
 10
510.269
 20
729.759
 11
512.513
 21
740.041
  0
LINE
  8
Annotation
  6
CONTINUOUS
 62
20
 10
512.606
 20
729.759
 11
472.492
 21
729.759
  0
ENDBLK
  0
BLOCK
  8
0
  2
*D8
 70
1
 10
0
 20
0
 30
0
  3
*D8
 1

  0
LINE
  8
Annotation
  6
CONTINUOUS
 62
20
 10
512.513
 20
719.477
 11
510.269
 21
729.759
  0
LINE
  8
Annotation
  6
CONTINUOUS
 62
20
 10
510.269
 20
729.759
 11
508.026
 21
719.477
  0
TEXT
  8
Annotation
  6
CONTINUOUS
 62
20
 10
506.612
 20
672.362
 40
10.566
 41
0.9
 50
90
  1
78.95
 72
0
  0
LINE
  8
Annotation
  6
CONTINUOUS
 62
20
 10
510.269
 20
729.759
 11
510.269
 21
650.809
  0
LINE
  8
Annotation
  6
CONTINUOUS
 62
20
 10
508.026
 20
661.091
 11
510.269
 21
650.809
  0
LINE
  8
Annotation
  6
CONTINUOUS
 62
20
 10
510.269
 20
650.809
 11
512.513
 21
661.091
  0
LINE
  8
Annotation
  6
CONTINUOUS
 62
20
 10
512.606
 20
650.809
 11
472.492
 21
650.809
  0
ENDBLK
  0
BLOCK
  8
0
  2
*D9
 70
1
 10
0
 20
0
 30
0
  3
*D9
 1

  0
LINE
  8
Annotation
  6
CONTINUOUS
 62
20
 10
512.513
 20
640.527
 11
510.269
 21
650.809
  0
LINE
  8
Annotation
  6
CONTINUOUS
 62
20
 10
510.269
 20
650.809
 11
508.026
 21
640.527
  0
TEXT
  8
Annotation
  6
CONTINUOUS
 62
20
 10
506.612
 20
610.701
 40
10.566
 41
0.9
 50
90
  1
52.5
 72
0
  0
LINE
  8
Annotation
  6
CONTINUOUS
 62
20
 10
510.269
 20
650.809
 11
510.269
 21
598.309
  0
LINE
  8
Annotation
  6
CONTINUOUS
 62
20
 10
508.026
 20
608.591
 11
510.269
 21
598.309
  0
LINE
  8
Annotation
  6
CONTINUOUS
 62
20
 10
510.269
 20
598.309
 11
512.513
 21
608.591
  0
LINE
  8
Annotation
  6
CONTINUOUS
 62
20
 10
512.606
 20
598.309
 11
419.992
 21
598.309
  0
ENDBLK
  0
BLOCK
  8
0
  2
*D10
 70
1
 10
0
 20
0
 30
0
  3
*D10
 1

  0
LINE
  8
Annotation
  6
CONTINUOUS
 62
20
 10
214.128
 20
646.745
 11
214.128
 21
562.955
  0
LINE
  8
Annotation
  6
CONTINUOUS
 62
20
 10
224.41
 20
567.535
 11
214.128
 21
565.292
  0
LINE
  8
Annotation
  6
CONTINUOUS
 62
20
 10
214.128
 20
565.292
 11
224.41
 21
563.048
  0
TEXT
  8
Annotation
  6
CONTINUOUS
 62
20
 10
226.52
 20
568.949
 40
10.566
 41
0.9
 50
0
  1
52.5
 72
0
  0
LINE
  8
Annotation
  6
CONTINUOUS
 62
20
 10
214.128
 20
565.292
 11
266.628
 21
565.292
  0
LINE
  8
Annotation
  6
CONTINUOUS
 62
20
 10
256.346
 20
563.048
 11
266.628
 21
565.292
  0
LINE
  8
Annotation
  6
CONTINUOUS
 62
20
 10
266.628
 20
565.292
 11
256.346
 21
567.535
  0
LINE
  8
Annotation
  6
CONTINUOUS
 62
20
 10
266.628
 20
562.955
 11
266.628
 21
594.245
  0
ENDBLK
  0
BLOCK
  8
0
  2
*D11
 70
1
 10
0
 20
0
 30
0
  3
*D11
 1

  0
LINE
  8
Annotation
  6
CONTINUOUS
 62
20
 10
276.91
 20
567.535
 11
266.628
 21
565.292
  0
LINE
  8
Annotation
  6
CONTINUOUS
 62
20
 10
266.628
 20
565.292
 11
276.91
 21
563.048
  0
TEXT
  8
Annotation
  6
CONTINUOUS
 62
20
 10
323.356
 20
568.949
 40
10.566
 41
0.9
 50
0
  1
149.3
 72
0
  0
LINE
  8
Annotation
  6
CONTINUOUS
 62
20
 10
266.628
 20
565.292
 11
415.928
 21
565.292
  0
LINE
  8
Annotation
  6
CONTINUOUS
 62
20
 10
405.646
 20
563.048
 11
415.928
 21
565.292
  0
LINE
  8
Annotation
  6
CONTINUOUS
 62
20
 10
415.928
 20
565.292
 11
405.646
 21
567.535
  0
LINE
  8
Annotation
  6
CONTINUOUS
 62
20
 10
415.928
 20
562.955
 11
415.928
 21
594.245
  0
ENDBLK
  0
BLOCK
  8
0
  2
*D12
 70
1
 10
0
 20
0
 30
0
  3
*D12
 1

  0
LINE
  8
Annotation
  6
CONTINUOUS
 62
20
 10
426.21
 20
567.535
 11
415.928
 21
565.292
  0
LINE
  8
Annotation
  6
CONTINUOUS
 62
20
 10
415.928
 20
565.292
 11
426.21
 21
563.048
  0
TEXT
  8
Annotation
  6
CONTINUOUS
 62
20
 10
428.32
 20
568.949
 40
10.566
 41
0.9
 50
0
  1
52.5
 72
0
  0
LINE
  8
Annotation
  6
CONTINUOUS
 62
20
 10
415.928
 20
565.292
 11
468.428
 21
565.292
  0
LINE
  8
Annotation
  6
CONTINUOUS
 62
20
 10
458.146
 20
563.048
 11
468.428
 21
565.292
  0
LINE
  8
Annotation
  6
CONTINUOUS
 62
20
 10
468.428
 20
565.292
 11
458.146
 21
567.535
  0
LINE
  8
Annotation
  6
CONTINUOUS
 62
20
 10
468.428
 20
562.955
 11
468.428
 21
646.745
  0
ENDBLK
  0
BLOCK
  8
0
  2
*D13
 70
1
 10
0
 20
0
 30
0
  3
*D13
 1

  0
LINE
  8
Annotation
  6
CONTINUOUS
 62
20
 10
796.529
 20
919.548
 11
820.604
 21
919.548
  0
LINE
  8
Annotation
  6
CONTINUOUS
 62
20
 10
820.511
 20
909.266
 11
818.267
 21
919.548
  0
LINE
  8
Annotation
  6
CONTINUOUS
 62
20
 10
818.267
 20
919.548
 11
816.024
 21
909.266
  0
TEXT
  8
Annotation
  6
CONTINUOUS
 62
20
 10
814.61
 20
879.44
 40
10.566
 41
0.9
 50
90
  1
52.5
 72
0
  0
LINE
  8
Annotation
  6
CONTINUOUS
 62
20
 10
818.267
 20
919.548
 11
818.267
 21
867.048
  0
LINE
  8
Annotation
  6
CONTINUOUS
 62
20
 10
816.024
 20
877.33
 11
818.267
 21
867.048
  0
LINE
  8
Annotation
  6
CONTINUOUS
 62
20
 10
818.267
 20
867.048
 11
820.511
 21
877.33
  0
LINE
  8
Annotation
  6
CONTINUOUS
 62
20
 10
820.604
 20
867.048
 11
796.529
 21
867.048
  0
ENDBLK
  0
BLOCK
  8
0
  2
*D14
 70
1
 10
0
 20
0
 30
0
  3
*D14
 1

  0
LINE
  8
Annotation
  6
CONTINUOUS
 62
20
 10
820.511
 20
856.766
 11
818.267
 21
867.048
  0
LINE
  8
Annotation
  6
CONTINUOUS
 62
20
 10
818.267
 20
867.048
 11
816.024
 21
856.766
  0
TEXT
  8
Annotation
  6
CONTINUOUS
 62
20
 10
814.61
 20
810.59
 40
10.566
 41
0.9
 50
90
  1
85.2
 72
0
  0
LINE
  8
Annotation
  6
CONTINUOUS
 62
20
 10
818.267
 20
867.048
 11
818.267
 21
781.848
  0
LINE
  8
Annotation
  6
CONTINUOUS
 62
20
 10
816.024
 20
792.13
 11
818.267
 21
781.848
  0
LINE
  8
Annotation
  6
CONTINUOUS
 62
20
 10
818.267
 20
781.848
 11
820.511
 21
792.13
  0
LINE
  8
Annotation
  6
CONTINUOUS
 62
20
 10
820.604
 20
781.848
 11
796.529
 21
781.848
  0
ENDBLK
  0
BLOCK
  8
0
  2
*D15
 70
1
 10
0
 20
0
 30
0
  3
*D15
 1

  0
LINE
  8
Annotation
  6
CONTINUOUS
 62
20
 10
820.511
 20
771.566
 11
818.267
 21
781.848
  0
LINE
  8
Annotation
  6
CONTINUOUS
 62
20
 10
818.267
 20
781.848
 11
816.024
 21
771.566
  0
TEXT
  8
Annotation
  6
CONTINUOUS
 62
20
 10
814.61
 20
730.74
 40
10.566
 41
0.9
 50
90
  1
74.5
 72
0
  0
LINE
  8
Annotation
  6
CONTINUOUS
 62
20
 10
818.267
 20
781.848
 11
818.267
 21
707.348
  0
LINE
  8
Annotation
  6
CONTINUOUS
 62
20
 10
816.024
 20
717.63
 11
818.267
 21
707.348
  0
LINE
  8
Annotation
  6
CONTINUOUS
 62
20
 10
818.267
 20
707.348
 11
820.511
 21
717.63
  0
LINE
  8
Annotation
  6
CONTINUOUS
 62
20
 10
820.604
 20
707.348
 11
796.529
 21
707.348
  0
ENDBLK
  0
BLOCK
  8
0
  2
*D16
 70
1
 10
0
 20
0
 30
0
  3
*D16
 1

  0
LINE
  8
Annotation
  6
CONTINUOUS
 62
20
 10
820.511
 20
697.066
 11
818.267
 21
707.348
  0
LINE
  8
Annotation
  6
CONTINUOUS
 62
20
 10
818.267
 20
707.348
 11
816.024
 21
697.066
  0
TEXT
  8
Annotation
  6
CONTINUOUS
 62
20
 10
814.61
 20
647.24
 40
10.566
 41
0.9
 50
90
  1
92.5
 72
0
  0
LINE
  8
Annotation
  6
CONTINUOUS
 62
20
 10
818.267
 20
707.348
 11
818.267
 21
614.848
  0
LINE
  8
Annotation
  6
CONTINUOUS
 62
20
 10
816.024
 20
625.13
 11
818.267
 21
614.848
  0
LINE
  8
Annotation
  6
CONTINUOUS
 62
20
 10
818.267
 20
614.848
 11
820.511
 21
625.13
  0
LINE
  8
Annotation
  6
CONTINUOUS
 62
20
 10
820.604
 20
614.848
 11
796.529
 21
614.848
  0
ENDBLK
  0
BLOCK
  8
0
  2
*D17
 70
1
 10
0
 20
0
 30
0
  3
*D17
 1

  0
LINE
  8
Annotation
  6
CONTINUOUS
 62
20
 10
1507.33
 20
29.762
 11
1507.33
 21
8.077
  0
LINE
  8
Annotation
  6
CONTINUOUS
 62
20
 10
1522.139
 20
14.674
 11
1507.33
 21
11.443
  0
LINE
  8
Annotation
  6
CONTINUOUS
 62
20
 10
1507.33
 20
11.443
 11
1522.139
 21
8.212
  0
LINE
  8
Annotation
  6
CONTINUOUS
 62
20
 10
1507.33
 20
11.443
 11
1575.755
 21
11.443
  0
TEXT
  8
Annotation
  6
CONTINUOUS
 62
20
 10
1578.609
 20
6.058
 40
17.501
 41
0.9
 50
0
  1
175
 72
0
  0
LINE
  8
Annotation
  6
CONTINUOUS
 62
20
 10
1613.906
 20
11.443
 11
1682.33
 21
11.443
  0
LINE
  8
Annotation
  6
CONTINUOUS
 62
20
 10
1667.522
 20
8.212
 11
1682.33
 21
11.443
  0
LINE
  8
Annotation
  6
CONTINUOUS
 62
20
 10
1682.33
 20
11.443
 11
1667.522
 21
14.674
  0
LINE
  8
Annotation
  6
CONTINUOUS
 62
20
 10
1682.33
 20
8.077
 11
1682.33
 21
29.762
  0
ENDBLK
  0
BLOCK
  8
0
  2
*D18
 70
1
 10
0
 20
0
 30
0
  3
*D18
 1

  0
LINE
  8
Annotation
  6
CONTINUOUS
 62
20
 10
1500.599
 20
36.493
 11
1467.963
 21
36.493
  0
LINE
  8
Annotation
  6
CONTINUOUS
 62
20
 10
1468.098
 20
51.301
 11
1471.329
 21
36.493
  0
LINE
  8
Annotation
  6
CONTINUOUS
 62
20
 10
1471.329
 20
36.493
 11
1474.559
 21
51.301
  0
LINE
  8
Annotation
  6
CONTINUOUS
 62
20
 10
1471.329
 20
36.493
 11
1471.329
 21
176.451
  0
TEXT
  8
Annotation
  6
CONTINUOUS
 62
20
 10
1441.645
 20
182.509
 40
17.501
 41
0.9
 50
0
  1
302.8
 72
0
  0
LINE
  8
Annotation
  6
CONTINUOUS
 62
20
 10
1471.329
 20
199.336
 11
1471.329
 21
339.294
  0
LINE
  8
Annotation
  6
CONTINUOUS
 62
20
 10
1474.559
 20
324.486
 11
1471.329
 21
339.294
  0
LINE
  8
Annotation
  6
CONTINUOUS
 62
20
 10
1471.329
 20
339.294
 11
1468.098
 21
324.486
  0
LINE
  8
Annotation
  6
CONTINUOUS
 62
20
 10
1467.963
 20
339.294
 11
1500.599
 21
339.294
  0
ENDBLK
  0
BLOCK
  8
0
  2
*D19
 70
1
 10
0
 20
0
 30
0
  3
*D19
 1

  0
LINE
  8
Annotation
  6
CONTINUOUS
 62
20
 10
224.064
 20
419.718
 11
366.7
 21
419.718
  0
LINE
  8
Annotation
  6
CONTINUOUS
 62
20
 10
366.607
 20
409.436
 11
364.363
 21
419.718
  0
LINE
  8
Annotation
  6
CONTINUOUS
 62
20
 10
364.363
 20
419.718
 11
362.12
 21
409.436
  0
TEXT
  8
Annotation
  6
CONTINUOUS
 62
20
 10
360.706
 20
299.924
 40
10.566
 41
0.9
 50
90
  1
220
 72
0
  0
LINE
  8
Annotation
  6
CONTINUOUS
 62
20
 10
364.363
 20
419.718
 11
364.363
 21
199.718
  0
LINE
  8
Annotation
  6
CONTINUOUS
 62
20
 10
362.12
 20
210
 11
364.363
 21
199.718
  0
LINE
  8
Annotation
  6
CONTINUOUS
 62
20
 10
364.363
 20
199.718
 11
366.607
 21
210
  0
LINE
  8
Annotation
  6
CONTINUOUS
 62
20
 10
366.7
 20
199.718
 11
224.064
 21
199.718
  0
ENDBLK
  0
BLOCK
  8
0
  2
*D20
 70
1
 10
0
 20
0
 30
0
  3
*D20
 1

  0
LINE
  8
Annotation
  6
CONTINUOUS
 62
20
 10
0
 20
264.654
 11
0
 21
141.891
  0
LINE
  8
Annotation
  6
CONTINUOUS
 62
20
 10
10.282
 20
146.471
 11
0
 21
144.227
  0
LINE
  8
Annotation
  6
CONTINUOUS
 62
20
 10
0
 20
144.227
 11
10.282
 21
141.984
  0
TEXT
  8
Annotation
  6
CONTINUOUS
 62
20
 10
135.206
 20
147.885
 40
10.566
 41
0.9
 50
0
  1
290
 72
0
  0
LINE
  8
Annotation
  6
CONTINUOUS
 62
20
 10
0
 20
144.227
 11
290
 21
144.227
  0
LINE
  8
Annotation
  6
CONTINUOUS
 62
20
 10
279.718
 20
141.984
 11
290
 21
144.227
  0
LINE
  8
Annotation
  6
CONTINUOUS
 62
20
 10
290
 20
144.227
 11
279.718
 21
146.471
  0
LINE
  8
Annotation
  6
CONTINUOUS
 62
20
 10
290
 20
141.891
 11
290
 21
264.654
  0
ENDBLK
  0
BLOCK
  8
0
  2
*D21
 70
1
 10
0
 20
0
 30
0
  3
*D21
 1

  0
LINE
  8
Annotation
  6
CONTINUOUS
 62
20
 10
858.989
 20
455.714
 11
1007.377
 21
455.714
  0
LINE
  8
Annotation
  6
CONTINUOUS
 62
20
 10
1007.284
 20
445.433
 11
1005.04
 21
455.714
  0
LINE
  8
Annotation
  6
CONTINUOUS
 62
20
 10
1005.04
 20
455.714
 11
1002.797
 21
445.433
  0
TEXT
  8
Annotation
  6
CONTINUOUS
 62
20
 10
1001.383
 20
296.42
 40
10.566
 41
0.9
 50
90
  1
299
 72
0
  0
LINE
  8
Annotation
  6
CONTINUOUS
 62
20
 10
1005.04
 20
455.714
 11
1005.04
 21
156.714
  0
LINE
  8
Annotation
  6
CONTINUOUS
 62
20
 10
1002.797
 20
166.996
 11
1005.04
 21
156.714
  0
LINE
  8
Annotation
  6
CONTINUOUS
 62
20
 10
1005.04
 20
156.714
 11
1007.284
 21
166.996
  0
LINE
  8
Annotation
  6
CONTINUOUS
 62
20
 10
1007.377
 20
156.714
 11
858.989
 21
156.714
  0
ENDBLK
  0
BLOCK
  8
0
  2
*D22
 70
1
 10
0
 20
0
 30
0
  3
*D22
 1

  0
LINE
  8
Annotation
  6
CONTINUOUS
 62
20
 10
594.425
 20
261.557
 11
594.425
 21
127.065
  0
LINE
  8
Annotation
  6
CONTINUOUS
 62
20
 10
604.707
 20
131.646
 11
594.425
 21
129.402
  0
LINE
  8
Annotation
  6
CONTINUOUS
 62
20
 10
594.425
 20
129.402
 11
604.707
 21
127.159
  0
TEXT
  8
Annotation
  6
CONTINUOUS
 62
20
 10
769.63
 20
133.06
 40
10.566
 41
0.9
 50
0
  1
370
 72
0
  0
LINE
  8
Annotation
  6
CONTINUOUS
 62
20
 10
594.425
 20
129.402
 11
964.425
 21
129.402
  0
LINE
  8
Annotation
  6
CONTINUOUS
 62
20
 10
954.143
 20
127.159
 11
964.425
 21
129.402
  0
LINE
  8
Annotation
  6
CONTINUOUS
 62
20
 10
964.425
 20
129.402
 11
954.143
 21
131.646
  0
LINE
  8
Annotation
  6
CONTINUOUS
 62
20
 10
964.425
 20
127.065
 11
964.425
 21
261.557
  0
ENDBLK
  0
BLOCK
  8
0
  2
*D23
 70
1
 10
0
 20
0
 30
0
  3
*D23
 1

  0
LINE
  8
Annotation
  6
CONTINUOUS
 62
20
 10
214.128
 20
646.745
 11
214.128
 21
535.816
  0
LINE
  8
Annotation
  6
CONTINUOUS
 62
20
 10
224.41
 20
540.396
 11
214.128
 21
538.153
  0
LINE
  8
Annotation
  6
CONTINUOUS
 62
20
 10
214.128
 20
538.153
 11
224.41
 21
535.909
  0
TEXT
  8
Annotation
  6
CONTINUOUS
 62
20
 10
323.356
 20
541.81
 40
10.566
 41
0.9
 50
0
  1
254.3
 72
0
  0
LINE
  8
Annotation
  6
CONTINUOUS
 62
20
 10
214.128
 20
538.153
 11
468.428
 21
538.153
  0
LINE
  8
Annotation
  6
CONTINUOUS
 62
20
 10
458.146
 20
535.909
 11
468.428
 21
538.153
  0
LINE
  8
Annotation
  6
CONTINUOUS
 62
20
 10
468.428
 20
538.153
 11
458.146
 21
540.396
  0
LINE
  8
Annotation
  6
CONTINUOUS
 62
20
 10
468.428
 20
535.816
 11
468.428
 21
562.955
  0
ENDBLK
  0
BLOCK
  8
0
  2
*D24
 70
1
 10
0
 20
0
 30
0
  3
*D24
 1

  0
LINE
  8
Annotation
  6
CONTINUOUS
 62
20
 10
419.992
 20
782.259
 11
541.651
 21
782.259
  0
LINE
  8
Annotation
  6
CONTINUOUS
 62
20
 10
541.557
 20
771.977
 11
539.314
 21
782.259
  0
LINE
  8
Annotation
  6
CONTINUOUS
 62
20
 10
539.314
 20
782.259
 11
537.071
 21
771.977
  0
TEXT
  8
Annotation
  6
CONTINUOUS
 62
20
 10
535.656
 20
668.298
 40
10.566
 41
0.9
 50
90
  1
183.95
 72
0
  0
LINE
  8
Annotation
  6
CONTINUOUS
 62
20
 10
539.314
 20
782.259
 11
539.314
 21
598.309
  0
LINE
  8
Annotation
  6
CONTINUOUS
 62
20
 10
537.071
 20
608.591
 11
539.314
 21
598.309
  0
LINE
  8
Annotation
  6
CONTINUOUS
 62
20
 10
539.314
 20
598.309
 11
541.557
 21
608.591
  0
LINE
  8
Annotation
  6
CONTINUOUS
 62
20
 10
541.651
 20
598.309
 11
419.992
 21
598.309
  0
ENDBLK
  0
BLOCK
  8
0
  2
*D25
 70
1
 10
0
 20
0
 30
0
  3
*D25
 1

  0
LINE
  8
Annotation
  6
CONTINUOUS
 62
20
 10
796.529
 20
919.548
 11
883.221
 21
919.548
  0
LINE
  8
Annotation
  6
CONTINUOUS
 62
20
 10
883.127
 20
909.266
 11
880.884
 21
919.548
  0
LINE
  8
Annotation
  6
CONTINUOUS
 62
20
 10
880.884
 20
919.548
 11
878.641
 21
909.266
  0
TEXT
  8
Annotation
  6
CONTINUOUS
 62
20
 10
877.226
 20
749.276
 40
10.566
 41
0.9
 50
90
  1
304.7
 72
0
  0
LINE
  8
Annotation
  6
CONTINUOUS
 62
20
 10
880.884
 20
919.548
 11
880.884
 21
614.848
  0
LINE
  8
Annotation
  6
CONTINUOUS
 62
20
 10
878.641
 20
625.13
 11
880.884
 21
614.848
  0
LINE
  8
Annotation
  6
CONTINUOUS
 62
20
 10
880.884
 20
614.848
 11
883.127
 21
625.13
  0
LINE
  8
Annotation
  6
CONTINUOUS
 62
20
 10
883.221
 20
614.848
 11
820.604
 21
614.848
  0
ENDBLK
  0
BLOCK
  8
0
  2
*D26
 70
1
 10
0
 20
0
 30
0
  3
*D26
 1

  0
LINE
  8
Annotation
  6
CONTINUOUS
 62
20
 10
617.465
 20
610.784
 11
617.465
 21
556.928
  0
LINE
  8
Annotation
  6
CONTINUOUS
 62
20
 10
627.747
 20
561.509
 11
617.465
 21
559.265
  0
LINE
  8
Annotation
  6
CONTINUOUS
 62
20
 10
617.465
 20
559.265
 11
627.747
 21
557.022
  0
TEXT
  8
Annotation
  6
CONTINUOUS
 62
20
 10
695.171
 20
562.923
 40
10.566
 41
0.9
 50
0
  1
175
 72
0
  0
LINE
  8
Annotation
  6
CONTINUOUS
 62
20
 10
617.465
 20
559.265
 11
792.465
 21
559.265
  0
LINE
  8
Annotation
  6
CONTINUOUS
 62
20
 10
782.183
 20
557.022
 11
792.465
 21
559.265
  0
LINE
  8
Annotation
  6
CONTINUOUS
 62
20
 10
792.465
 20
559.265
 11
782.183
 21
561.509
  0
LINE
  8
Annotation
  6
CONTINUOUS
 62
20
 10
792.465
 20
556.928
 11
792.465
 21
610.784
  0
ENDBLK
  0
BLOCK
  8
0
  2
*D27
 70
1
 10
0
 20
0
 30
0
  3
*D27
 1

  0
LINE
  8
Annotation
  6
CONTINUOUS
 62
20
 10
1135.19
 20
952.736
 11
1076.433
 21
952.736
  0
LINE
  8
Annotation
  6
CONTINUOUS
 62
20
 10
1081.013
 20
942.454
 11
1078.769
 21
952.736
  0
LINE
  8
Annotation
  6
CONTINUOUS
 62
20
 10
1078.769
 20
952.736
 11
1076.526
 21
942.454
  0
TEXT
  8
Annotation
  6
CONTINUOUS
 62
20
 10
1075.112
 20
758.862
 40
10.566
 41
0.9
 50
90
  1
351.9
 72
0
  0
LINE
  8
Annotation
  6
CONTINUOUS
 62
20
 10
1078.769
 20
952.736
 11
1078.769
 21
600.833
  0
LINE
  8
Annotation
  6
CONTINUOUS
 62
20
 10
1076.526
 20
611.115
 11
1078.769
 21
600.833
  0
LINE
  8
Annotation
  6
CONTINUOUS
 62
20
 10
1078.769
 20
600.833
 11
1081.013
 21
611.115
  0
LINE
  8
Annotation
  6
CONTINUOUS
 62
20
 10
1076.433
 20
600.833
 11
1135.19
 21
600.833
  0
ENDBLK
  0
BLOCK
  8
0
  2
*D28
 70
1
 10
0
 20
0
 30
0
  3
*D28
 1

  0
LINE
  8
Annotation
  6
CONTINUOUS
 62
20
 10
1114.254
 20
621.769
 11
1114.254
 21
440.508
  0
LINE
  8
Annotation
  6
CONTINUOUS
 62
20
 10
1124.536
 20
445.089
 11
1114.254
 21
442.845
  0
LINE
  8
Annotation
  6
CONTINUOUS
 62
20
 10
1114.254
 20
442.845
 11
1124.536
 21
440.602
  0
TEXT
  8
Annotation
  6
CONTINUOUS
 62
20
 10
1211.96
 20
446.503
 40
10.566
 41
0.9
 50
0
  1
215
 72
0
  0
LINE
  8
Annotation
  6
CONTINUOUS
 62
20
 10
1114.254
 20
442.845
 11
1329.254
 21
442.845
  0
LINE
  8
Annotation
  6
CONTINUOUS
 62
20
 10
1318.972
 20
440.602
 11
1329.254
 21
442.845
  0
LINE
  8
Annotation
  6
CONTINUOUS
 62
20
 10
1329.254
 20
442.845
 11
1318.972
 21
445.089
  0
LINE
  8
Annotation
  6
CONTINUOUS
 62
20
 10
1329.254
 20
440.508
 11
1329.254
 21
621.769
  0
ENDBLK
  0
ENDSEC
  0
SECTION
  2
ENTITIES
  0
DIMENSION
  1
70
  2
*D1
  3
STANDARD
 70
32
  8
Annotation
  6
CONTINUOUS
 62
20
 53
90.000015
 10
332.918
 20
419.718
 11
332.918
 21
384.718
 13
235.52
 23
419.718
 14
300.889
 24
349.718
 50
90.00
  0
DIMENSION
  1
80
  2
*D2
  3
STANDARD
 70
33
  8
Annotation
  6
CONTINUOUS
 62
20
 53
90.000015
 10
332.918
 20
349.718
 11
332.918
 21
309.718
 13
300.889
 23
349.718
 14
300.889
 24
269.718
  0
DIMENSION
  1
70
  2
*D3
  3
STANDARD
 70
32
  8
Annotation
  6
CONTINUOUS
 62
20
 53
90.000015
 10
332.918
 20
269.718
 11
332.918
 21
234.718
 13
300.889
 23
269.718
 14
235.52
 24
199.718
 50
90.00
  0
DIMENSION
  1
70
  2
*D4
  3
STANDARD
 70
32
  8
Annotation
  6
CONTINUOUS
 62
20
 10
0
 20
173.384
 11
35
 21
173.384
 13
0
 23
264.654
 14
70
 24
195.654
 50
180.00
  0
DIMENSION
  1
150
  2
*D5
  3
STANDARD
 70
33
  8
Annotation
  6
CONTINUOUS
 62
20
 10
70
 20
173.384
 11
145
 21
173.384
 13
70
 23
195.654
 14
220
 24
195.654
  0
DIMENSION
  1
70
  2
*D6
  3
STANDARD
 70
32
  8
Annotation
  6
CONTINUOUS
 62
20
 10
220
 20
173.384
 11
255
 21
173.384
 13
220
 23
195.654
 14
290
 24
264.654
 50
180.00
  0
DIMENSION
  1
52.5
  2
*D7
  3
STANDARD
 70
32
  8
Annotation
  6
CONTINUOUS
 62
20
 53
90.000015
 10
510.269
 20
782.259
 11
510.269
 21
756.009
 13
419.992
 23
782.259
 14
472.492
 24
729.759
 50
90.00
  0
DIMENSION
  1
78.95
  2
*D8
  3
STANDARD
 70
33
  8
Annotation
  6
CONTINUOUS
 62
20
 53
90.000015
 10
510.269
 20
729.759
 11
510.269
 21
690.284
 13
472.492
 23
729.759
 14
472.492
 24
650.809
  0
DIMENSION
  1
52.5
  2
*D9
  3
STANDARD
 70
32
  8
Annotation
  6
CONTINUOUS
 62
20
 53
90.000015
 10
510.269
 20
650.809
 11
510.269
 21
624.559
 13
472.492
 23
650.809
 14
419.992
 24
598.309
 50
90.00
  0
DIMENSION
  1
52.5
  2
*D10
  3
STANDARD
 70
32
  8
Annotation
  6
CONTINUOUS
 62
20
 10
214.128
 20
565.292
 11
240.378
 21
565.292
 13
214.128
 23
646.745
 14
266.628
 24
594.245
 50
180.00
  0
DIMENSION
  1
149.3
  2
*D11
  3
STANDARD
 70
33
  8
Annotation
  6
CONTINUOUS
 62
20
 10
266.628
 20
565.292
 11
341.278
 21
565.292
 13
266.628
 23
594.245
 14
415.928
 24
594.245
  0
DIMENSION
  1
52.5
  2
*D12
  3
STANDARD
 70
32
  8
Annotation
  6
CONTINUOUS
 62
20
 10
415.928
 20
565.292
 11
442.178
 21
565.292
 13
415.928
 23
594.245
 14
468.428
 24
646.745
 50
180.00
  0
DIMENSION
  1
52.5
  2
*D13
  3
STANDARD
 70
33
  8
Annotation
  6
CONTINUOUS
 62
20
 53
90.000015
 10
818.267
 20
919.548
 11
818.267
 21
893.298
 13
796.529
 23
919.548
 14
796.529
 24
867.048
  0
DIMENSION
  1
85.2
  2
*D14
  3
STANDARD
 70
33
  8
Annotation
  6
CONTINUOUS
 62
20
 53
90.000015
 10
818.267
 20
867.048
 11
818.267
 21
824.448
 13
796.529
 23
867.048
 14
796.529
 24
781.848
  0
DIMENSION
  1
74.5
  2
*D15
  3
STANDARD
 70
33
  8
Annotation
  6
CONTINUOUS
 62
20
 53
90.000015
 10
818.267
 20
781.848
 11
818.267
 21
744.598
 13
796.529
 23
781.848
 14
796.529
 24
707.348
  0
DIMENSION
  1
92.5
  2
*D16
  3
STANDARD
 70
33
  8
Annotation
  6
CONTINUOUS
 62
20
 53
90.000015
 10
818.267
 20
707.348
 11
818.267
 21
661.098
 13
796.529
 23
707.348
 14
796.529
 24
614.848
  0
DIMENSION
  1
175
  2
*D17
  3
STANDARD
 70
33
  8
Annotation
  6
CONTINUOUS
 62
20
 10
1507.33
 20
11.443
 11
1594.83
 21
11.443
 13
1507.33
 23
29.762
 14
1682.33
 24
29.762
  0
DIMENSION
  1
302.8
  2
*D18
  3
STANDARD
 70
33
  8
Annotation
  6
CONTINUOUS
 62
20
 10
1471.329
 20
36.493
 11
1471.329
 21
187.893
 13
1500.599
 23
36.493
 14
1500.599
 24
339.294
  0
DIMENSION
  1
220
  2
*D19
  3
STANDARD
 70
33
  8
Annotation
  6
CONTINUOUS
 62
20
 53
90.000015
 10
364.363
 20
419.718
 11
364.363
 21
309.718
 13
224.064
 23
419.718
 14
224.064
 24
199.718
  0
DIMENSION
  1
290
  2
*D20
  3
STANDARD
 70
33
  8
Annotation
  6
CONTINUOUS
 62
20
 10
0
 20
144.227
 11
145
 21
144.227
 13
0
 23
264.654
 14
290
 24
264.654
  0
DIMENSION
  1
299
  2
*D21
  3
STANDARD
 70
33
  8
Annotation
  6
CONTINUOUS
 62
20
 53
90.000015
 10
1005.04
 20
455.714
 11
1005.04
 21
306.214
 13
858.989
 23
455.714
 14
858.989
 24
156.714
  0
DIMENSION
  1
370
  2
*D22
  3
STANDARD
 70
33
  8
Annotation
  6
CONTINUOUS
 62
20
 10
594.425
 20
129.402
 11
779.425
 21
129.402
 13
594.425
 23
261.557
 14
964.425
 24
261.557
  0
DIMENSION
  1
254.3
  2
*D23
  3
STANDARD
 70
33
  8
Annotation
  6
CONTINUOUS
 62
20
 10
214.128
 20
538.153
 11
341.278
 21
538.153
 13
214.128
 23
646.745
 14
468.428
 24
646.745
  0
DIMENSION
  1
183.95
  2
*D24
  3
STANDARD
 70
33
  8
Annotation
  6
CONTINUOUS
 62
20
 53
90.000015
 10
539.314
 20
782.259
 11
539.314
 21
690.284
 13
419.992
 23
782.259
 14
419.992
 24
598.309
  0
DIMENSION
  1
304.7
  2
*D25
  3
STANDARD
 70
33
  8
Annotation
  6
CONTINUOUS
 62
20
 53
90.000015
 10
880.884
 20
919.548
 11
880.884
 21
767.198
 13
796.529
 23
919.548
 14
796.529
 24
614.848
  0
DIMENSION
  1
175
  2
*D26
  3
STANDARD
 70
33
  8
Annotation
  6
CONTINUOUS
 62
20
 10
617.465
 20
559.265
 11
704.965
 21
559.265
 13
617.465
 23
610.784
 14
792.465
 24
610.784
  0
DIMENSION
  1
351.9
  2
*D27
  3
STANDARD
 70
33
  8
Annotation
  6
CONTINUOUS
 62
20
 53
90.000015
 10
1078.769
 20
952.736
 11
1078.769
 21
776.784
 13
1135.19
 23
952.736
 14
1135.19
 24
600.833
  0
DIMENSION
  1
215
  2
*D28
  3
STANDARD
 70
33
  8
Annotation
  6
CONTINUOUS
 62
20
 10
1114.254
 20
442.845
 11
1221.754
 21
442.845
 13
1114.254
 23
621.769
 14
1329.254
 24
621.769
  0
LINE
  8
Design
  6
CONTINUOUS
 62
4
 10
70
 20
269.718
 11
220
 21
269.718
  0
LINE
  8
Design
  6
CONTINUOUS
 62
4
 10
220
 20
269.718
 11
220
 21
349.718
  0
LINE
  8
Design
  6
CONTINUOUS
 62
4
 10
220
 20
349.718
 11
70
 21
349.718
  0
LINE
  8
Design
  6
CONTINUOUS
 62
4
 10
70
 20
349.718
 11
70
 21
269.718
  0
LINE
  8
Design
  6
CONTINUOUS
 62
1
 10
70
 20
269.718
 11
70
 21
199.718
  0
LINE
  8
Design
  6
CONTINUOUS
 62
1
 10
70
 20
268.718
 11
0
 21
268.718
  0
LINE
  8
Design
  6
CONTINUOUS
 62
1
 10
220
 20
269.718
 11
220
 21
199.718
  0
LINE
  8
Design
  6
CONTINUOUS
 62
1
 10
220
 20
268.718
 11
290
 21
268.718
  0
LINE
  8
Design
  6
CONTINUOUS
 62
1
 10
70
 20
349.718
 11
70
 21
398.218
  0
LINE
  8
Design
  6
CONTINUOUS
 62
1
 10
70
 20
350.718
 11
0
 21
350.718
  0
LINE
  8
Design
  6
CONTINUOUS
 62
1
 10
220
 20
349.718
 11
220
 21
419.718
  0
LINE
  8
Design
  6
CONTINUOUS
 62
1
 10
220
 20
350.718
 11
290
 21
350.718
  0
LINE
  8
Design
  6
CONTINUOUS
 62
1
 10
0
 20
268.718
 11
0
 21
350.718
  0
LINE
  8
Design
  6
CONTINUOUS
 62
1
 10
70
 20
419.718
 11
220
 21
419.718
  0
LINE
  8
Design
  6
CONTINUOUS
 62
1
 10
290
 20
350.718
 11
290
 21
268.718
  0
LINE
  8
Design
  6
CONTINUOUS
 62
1
 10
220
 20
199.718
 11
70
 21
199.718
  0
LINE
  8
Design
  6
CONTINUOUS
 62
1
 10
70
 20
402.218
 11
72
 21
400.218
  0
LINE
  8
Design
  6
CONTINUOUS
 62
1
 10
72
 20
400.218
 11
70
 21
398.218
  0
LINE
  8
Design
  6
CONTINUOUS
 62
1
 10
70
 20
402.218
 11
70
 21
419.718
  0
LINE
  8
Design
  6
CONTINUOUS
 62
1
 10
701.925
 20
348.011
 11
698.925
 21
347.011
  0
LINE
  8
Design
  6
CONTINUOUS
 62
1
 10
698.925
 20
347.011
 11
629.425
 21
346.808
  0
LINE
  8
Design
  6
CONTINUOUS
 62
1
 10
629.425
 20
346.808
 11
594.425
 21
346.808
  0
LINE
  8
Design
  6
CONTINUOUS
 62
1
 10
701.925
 20
348.011
 11
691.057
 21
355.621
  0
ARC
  8
Design
  6
CONTINUOUS
 62
1
 10
693.924763543
 20
359.716554657
 40
4.999763563
 50
-180.005103499
 51
-125.000237491
  0
LINE
  8
Design
  6
CONTINUOUS
 62
1
 10
701.925
 20
420.214
 11
703.925
 21
423.214
  0
LINE
  8
Design
  6
CONTINUOUS
 62
1
 10
703.925
 20
423.214
 11
703.925
 21
455.714
  0
LINE
  8
Design
  6
CONTINUOUS
 62
1
 10
701.925
 20
420.214
 11
699.925
 21
421.615
  0
LINE
  8
Design
  6
CONTINUOUS
 62
1
 10
699.925
 20
421.615
 11
690.925
 21
421.615
  0
LINE
  8
Design
  6
CONTINUOUS
 62
1
 10
688.925
 20
419.615
 11
690.925
 21
421.615
  0
LINE
  8
Design
  6
CONTINUOUS
 62
1
 10
688.925
 20
419.615
 11
688.925
 21
359.717
  0
LINE
  8
Design
  6
CONTINUOUS
 62
1
 10
856.925
 20
348.011
 11
859.925
 21
347.011
  0
LINE
  8
Design
  6
CONTINUOUS
 62
1
 10
859.925
 20
347.011
 11
929.425
 21
346.808
  0
LINE
  8
Design
  6
CONTINUOUS
 62
1
 10
929.425
 20
346.808
 11
964.425
 21
346.808
  0
LINE
  8
Design
  6
CONTINUOUS
 62
1
 10
856.925
 20
348.011
 11
867.792
 21
355.621
  0
ARC
  8
Design
  6
CONTINUOUS
 62
1
 10
864.924927793
 20
359.717415410
 40
5.000072224
 50
-55.011909248
 51
-0.004760174
  0
LINE
  8
Design
  6
CONTINUOUS
 62
1
 10
856.925
 20
420.214
 11
854.925
 21
423.214
  0
LINE
  8
Design
  6
CONTINUOUS
 62
1
 10
854.925
 20
423.214
 11
854.925
 21
455.714
  0
LINE
  8
Design
  6
CONTINUOUS
 62
1
 10
856.925
 20
420.214
 11
858.925
 21
421.615
  0
LINE
  8
Design
  6
CONTINUOUS
 62
1
 10
858.925
 20
421.615
 11
867.925
 21
421.615
  0
LINE
  8
Design
  6
CONTINUOUS
 62
1
 10
869.925
 20
419.615
 11
867.925
 21
421.615
  0
LINE
  8
Design
  6
CONTINUOUS
 62
1
 10
869.925
 20
419.615
 11
869.925
 21
359.717
  0
LINE
  8
Design
  6
CONTINUOUS
 62
1
 10
703.925
 20
455.714
 11
854.925
 21
455.714
  0
LINE
  8
Design
  6
CONTINUOUS
 62
1
 10
701.925
 20
264.418
 11
698.925
 21
265.418
  0
LINE
  8
Design
  6
CONTINUOUS
 62
1
 10
698.925
 20
265.418
 11
629.425
 21
265.621
  0
LINE
  8
Design
  6
CONTINUOUS
 62
1
 10
629.425
 20
265.621
 11
594.425
 21
265.621
  0
LINE
  8
Design
  6
CONTINUOUS
 62
1
 10
701.925
 20
264.418
 11
691.057
 21
256.808
  0
ARC
  8
Design
  6
CONTINUOUS
 62
1
 10
693.924781941
 20
252.712435767
 40
4.999781960
 50
125.000347249
 51
180.004993741
  0
LINE
  8
Design
  6
CONTINUOUS
 62
1
 10
701.925
 20
192.214
 11
703.925
 21
189.214
  0
LINE
  8
Design
  6
CONTINUOUS
 62
1
 10
703.925
 20
189.214
 11
703.925
 21
156.714
  0
LINE
  8
Design
  6
CONTINUOUS
 62
1
 10
701.925
 20
192.214
 11
699.925
 21
190.814
  0
LINE
  8
Design
  6
CONTINUOUS
 62
1
 10
699.925
 20
190.814
 11
690.925
 21
190.814
  0
LINE
  8
Design
  6
CONTINUOUS
 62
1
 10
688.925
 20
192.814
 11
690.925
 21
190.814
  0
LINE
  8
Design
  6
CONTINUOUS
 62
1
 10
688.925
 20
192.814
 11
688.925
 21
252.712
  0
LINE
  8
Design
  6
CONTINUOUS
 62
1
 10
856.925
 20
264.418
 11
859.925
 21
265.418
  0
LINE
  8
Design
  6
CONTINUOUS
 62
1
 10
859.925
 20
265.418
 11
929.425
 21
265.621
  0
LINE
  8
Design
  6
CONTINUOUS
 62
1
 10
929.425
 20
265.621
 11
964.425
 21
265.621
  0
LINE
  8
Design
  6
CONTINUOUS
 62
1
 10
856.925
 20
264.418
 11
867.792
 21
256.808
  0
ARC
  8
Design
  6
CONTINUOUS
 62
1
 10
864.924909390
 20
252.711575007
 40
5.000090628
 50
0.004869970
 51
55.011799452
  0
LINE
  8
Design
  6
CONTINUOUS
 62
1
 10
856.925
 20
192.214
 11
854.925
 21
189.214
  0
LINE
  8
Design
  6
CONTINUOUS
 62
1
 10
854.925
 20
189.214
 11
854.925
 21
156.714
  0
LINE
  8
Design
  6
CONTINUOUS
 62
1
 10
856.925
 20
192.214
 11
858.925
 21
190.814
  0
LINE
  8
Design
  6
CONTINUOUS
 62
1
 10
858.925
 20
190.814
 11
867.925
 21
190.814
  0
LINE
  8
Design
  6
CONTINUOUS
 62
1
 10
869.925
 20
192.814
 11
867.925
 21
190.814
  0
LINE
  8
Design
  6
CONTINUOUS
 62
1
 10
869.925
 20
192.814
 11
869.925
 21
252.712
  0
LINE
  8
Design
  6
CONTINUOUS
 62
1
 10
703.925
 20
156.714
 11
854.925
 21
156.714
  0
LINE
  8
Design
  6
CONTINUOUS
 62
1
 10
964.425
 20
346.808
 11
964.425
 21
265.621
  0
LINE
  8
Design
  6
CONTINUOUS
 62
1
 10
594.425
 20
265.621
 11
594.425
 21
346.808
  0
LINE
  8
Design
  6
CONTINUOUS
 62
2
 10
415.928
 20
650.809
 11
266.628
 21
650.809
  0
LINE
  8
Design
  6
CONTINUOUS
 62
2
 10
266.628
 20
650.809
 11
266.628
 21
729.759
  0
LINE
  8
Design
  6
CONTINUOUS
 62
2
 10
266.628
 20
729.759
 11
415.928
 21
729.759
  0
LINE
  8
Design
  6
CONTINUOUS
 62
2
 10
415.928
 20
729.759
 11
415.928
 21
650.809
  0
LINE
  8
Design
  6
CONTINUOUS
 62
1
 10
415.928
 20
650.809
 11
468.428
 21
650.809
  0
LINE
  8
Design
  6
CONTINUOUS
 62
1
 10
468.428
 20
650.809
 11
468.428
 21
729.759
  0
LINE
  8
Design
  6
CONTINUOUS
 62
1
 10
468.428
 20
729.759
 11
415.928
 21
729.759
  0
LINE
  8
Design
  6
CONTINUOUS
 62
1
 10
415.928
 20
729.759
 11
415.928
 21
782.259
  0
LINE
  8
Design
  6
CONTINUOUS
 62
1
 10
415.928
 20
782.259
 11
266.628
 21
782.259
  0
LINE
  8
Design
  6
CONTINUOUS
 62
1
 10
266.628
 20
782.259
 11
266.628
 21
729.759
  0
LINE
  8
Design
  6
CONTINUOUS
 62
1
 10
266.628
 20
729.759
 11
214.128
 21
729.759
  0
LINE
  8
Design
  6
CONTINUOUS
 62
1
 10
214.128
 20
729.759
 11
214.128
 21
650.809
  0
LINE
  8
Design
  6
CONTINUOUS
 62
1
 10
214.128
 20
650.809
 11
266.628
 21
650.809
  0
LINE
  8
Design
  6
CONTINUOUS
 62
1
 10
266.628
 20
650.809
 11
266.628
 21
598.309
  0
LINE
  8
Design
  6
CONTINUOUS
 62
1
 10
266.628
 20
598.309
 11
415.928
 21
598.309
  0
LINE
  8
Design
  6
CONTINUOUS
 62
1
 10
415.928
 20
598.309
 11
415.928
 21
650.809
  0
LINE
  8
Design
  6
CONTINUOUS
 62
1
 10
617.465
 20
614.848
 11
792.465
 21
614.848
  0
LINE
  8
Design
  6
CONTINUOUS
 62
1
 10
792.465
 20
614.848
 11
792.465
 21
707.348
  0
LINE
  8
Design
  6
CONTINUOUS
 62
4
 10
792.465
 20
707.348
 11
617.465
 21
707.348
  0
LINE
  8
Design
  6
CONTINUOUS
 62
1
 10
617.465
 20
707.348
 11
617.465
 21
614.848
  0
LINE
  8
Design
  6
CONTINUOUS
 62
1
 10
617.465
 20
707.348
 11
617.465
 21
781.848
  0
LINE
  8
Design
  6
CONTINUOUS
 62
4
 10
617.465
 20
781.848
 11
792.465
 21
781.848
  0
LINE
  8
Design
  6
CONTINUOUS
 62
1
 10
792.465
 20
781.848
 11
792.465
 21
707.348
  0
LINE
  8
Design
  6
CONTINUOUS
 62
1
 10
792.465
 20
781.848
 11
792.465
 21
867.048
  0
LINE
  8
Design
  6
CONTINUOUS
 62
4
 10
792.465
 20
867.048
 11
617.465
 21
867.048
  0
LINE
  8
Design
  6
CONTINUOUS
 62
1
 10
617.465
 20
867.048
 11
617.465
 21
781.848
  0
LINE
  8
Design
  6
CONTINUOUS
 62
1
 10
617.465
 20
867.048
 11
617.465
 21
919.548
  0
LINE
  8
Design
  6
CONTINUOUS
 62
1
 10
617.465
 20
919.548
 11
792.465
 21
919.548
  0
LINE
  8
Design
  6
CONTINUOUS
 62
1
 10
792.465
 20
919.548
 11
792.465
 21
867.048
  0
LINE
  8
Design
  6
CONTINUOUS
 62
1
 10
1139.254
 20
600.833
 11
1304.254
 21
600.833
  0
LINE
  8
Design
  6
CONTINUOUS
 62
1
 10
1304.254
 20
600.833
 11
1329.254
 21
625.833
  0
LINE
  8
Design
  6
CONTINUOUS
 62
1
 10
1329.254
 20
625.833
 11
1329.254
 21
927.736
  0
LINE
  8
Design
  6
CONTINUOUS
 62
1
 10
1114.254
 20
927.736
 11
1139.254
 21
952.736
  0
LINE
  8
Design
  6
CONTINUOUS
 62
1
 10
1114.254
 20
927.736
 11
1114.254
 21
625.833
  0
LINE
  8
Design
  6
CONTINUOUS
 62
1
 10
1114.254
 20
625.833
 11
1139.254
 21
600.833
  0
LINE
  8
Design
  6
CONTINUOUS
 62
1
 10
1139.254
 20
952.736
 11
1304.254
 21
952.736
  0
LINE
  8
Design
  6
CONTINUOUS
 62
1
 10
1304.254
 20
952.736
 11
1329.254
 21
927.736
  0
LINE
  8
Design
  6
CONTINUOUS
 62
1
 10
1507.33
 20
36.493
 11
1682.33
 21
36.493
  0
LINE
  8
Design
  6
CONTINUOUS
 62
1
 10
1682.33
 20
36.493
 11
1682.33
 21
128.993
  0
LINE
  8
Design
  6
CONTINUOUS
 62
1
 10
1507.33
 20
128.993
 11
1507.33
 21
36.493
  0
LINE
  8
Design
  6
CONTINUOUS
 62
1
 10
1507.33
 20
128.993
 11
1507.33
 21
203.493
  0
LINE
  8
Design
  6
CONTINUOUS
 62
1
 10
1682.33
 20
203.493
 11
1682.33
 21
128.993
  0
LINE
  8
Design
  6
CONTINUOUS
 62
1
 10
1682.33
 20
203.493
 11
1682.33
 21
288.693
  0
LINE
  8
Design
  6
CONTINUOUS
 62
1
 10
1507.33
 20
288.693
 11
1507.33
 21
203.493
  0
LINE
  8
Design
  6
CONTINUOUS
 62
1
 10
1507.33
 20
288.693
 11
1507.33
 21
339.294
  0
LINE
  8
Design
  6
CONTINUOUS
 62
1
 10
1507.33
 20
339.294
 11
1682.33
 21
339.294
  0
LINE
  8
Design
  6
CONTINUOUS
 62
1
 10
1682.33
 20
339.294
 11
1682.33
 21
288.693
  0
ENDSEC
  0
EOF
