  0
SECTION
  2
HEADER
  9
$ACADVER
  1
AC1009
  0
ENDSEC
  0
SECTION
  2
TABLES
  0
TABLE
  2
LAYER
 70
   1
  0
LAYER
  2
DieLine
 70
  64
 62
     7
  6
CONTINUOUS
  0
ENDTAB
  0
ENDSEC
  0
SECTION
  2
ENTITIES
  0
LINE
  8
DieLine
 62
   1
  6
CONTINUOUS
 10
18.000
 20
0.000
 30
0.0
 11
18.000
 21
90.000
 31
0.0
  0
LINE
  8
DieLine
 62
   1
  6
CONTINUOUS
 10
78.000
 20
0.000
 30
0.0
 11
78.000
 21
90.000
 31
0.0
  0
LINE
  8
DieLine
 62
   1
  6
CONTINUOUS
 10
118.000
 20
0.000
 30
0.0
 11
118.000
 21
90.000
 31
0.0
  0
LINE
  8
DieLine
 62
   1
  6
CONTINUOUS
 10
178.000
 20
0.000
 30
0.0
 11
178.000
 21
90.000
 31
0.0
  0
LINE
  8
DieLine
 62
   1
  6
CONTINUOUS
 10
218.000
 20
0.000
 30
0.0
 11
218.000
 21
90.000
 31
0.0
  0
LINE
  8
DieLine
 62
   1
  6
CONTINUOUS
 10
0.000
 20
0.000
 30
0.0
 11
0.000
 21
90.000
 31
0.0
  0
LINE
  8
DieLine
 62
   1
  6
CONTINUOUS
 10
0.000
 20
0.000
 30
0.0
 11
218.000
 21
0.000
 31
0.0
  0
LINE
  8
DieLine
 62
   1
  6
CONTINUOUS
 10
0.000
 20
90.000
 30
0.0
 11
218.000
 21
90.000
 31
0.0
  0
LINE
  8
DieLine
 62
   1
  6
CONTINUOUS
 10
18.000
 20
90.000
 30
0.0
 11
18.000
 21
120.000
 31
0.0
  0
LINE
  8
DieLine
 62
   1
  6
CONTINUOUS
 10
78.000
 20
90.000
 30
0.0
 11
78.000
 21
120.000
 31
0.0
  0
LINE
  8
DieLine
 62
   1
  6
CONTINUOUS
 10
18.000
 20
120.000
 30
0.0
 11
78.000
 21
120.000
 31
0.0
  0
LINE
  8
DieLine
 62
   1
  6
CONTINUOUS
 10
78.000
 20
90.000
 30
0.0
 11
78.000
 21
120.000
 31
0.0
  0
LINE
  8
DieLine
 62
   1
  6
CONTINUOUS
 10
118.000
 20
90.000
 30
0.0
 11
118.000
 21
120.000
 31
0.0
  0
LINE
  8
DieLine
 62
   1
  6
CONTINUOUS
 10
78.000
 20
120.000
 30
0.0
 11
118.000
 21
120.000
 31
0.0
  0
LINE
  8
DieLine
 62
   1
  6
CONTINUOUS
 10
118.000
 20
90.000
 30
0.0
 11
118.000
 21
120.000
 31
0.0
  0
LINE
  8
DieLine
 62
   1
  6
CONTINUOUS
 10
178.000
 20
90.000
 30
0.0
 11
178.000
 21
120.000
 31
0.0
  0
LINE
  8
DieLine
 62
   1
  6
CONTINUOUS
 10
118.000
 20
120.000
 30
0.0
 11
178.000
 21
120.000
 31
0.0
  0
LINE
  8
DieLine
 62
   1
  6
CONTINUOUS
 10
178.000
 20
90.000
 30
0.0
 11
178.000
 21
120.000
 31
0.0
  0
LINE
  8
DieLine
 62
   1
  6
CONTINUOUS
 10
218.000
 20
90.000
 30
0.0
 11
218.000
 21
120.000
 31
0.0
  0
LINE
  8
DieLine
 62
   1
  6
CONTINUOUS
 10
178.000
 20
120.000
 30
0.0
 11
218.000
 21
120.000
 31
0.0
  0
LINE
  8
DieLine
 62
   1
  6
CONTINUOUS
 10
18.000
 20
0.000
 30
0.0
 11
18.000
 21
-30.000
 31
0.0
  0
LINE
  8
DieLine
 62
   1
  6
CONTINUOUS
 10
78.000
 20
0.000
 30
0.0
 11
78.000
 21
-30.000
 31
0.0
  0
LINE
  8
DieLine
 62
   1
  6
CONTINUOUS
 10
18.000
 20
-30.000
 30
0.0
 11
78.000
 21
-30.000
 31
0.0
  0
LINE
  8
DieLine
 62
   1
  6
CONTINUOUS
 10
78.000
 20
0.000
 30
0.0
 11
78.000
 21
-30.000
 31
0.0
  0
LINE
  8
DieLine
 62
   1
  6
CONTINUOUS
 10
118.000
 20
0.000
 30
0.0
 11
118.000
 21
-30.000
 31
0.0
  0
LINE
  8
DieLine
 62
   1
  6
CONTINUOUS
 10
78.000
 20
-30.000
 30
0.0
 11
118.000
 21
-30.000
 31
0.0
  0
LINE
  8
DieLine
 62
   1
  6
CONTINUOUS
 10
118.000
 20
0.000
 30
0.0
 11
118.000
 21
-30.000
 31
0.0
  0
LINE
  8
DieLine
 62
   1
  6
CONTINUOUS
 10
178.000
 20
0.000
 30
0.0
 11
178.000
 21
-30.000
 31
0.0
  0
LINE
  8
DieLine
 62
   1
  6
CONTINUOUS
 10
118.000
 20
-30.000
 30
0.0
 11
178.000
 21
-30.000
 31
0.0
  0
LINE
  8
DieLine
 62
   1
  6
CONTINUOUS
 10
178.000
 20
0.000
 30
0.0
 11
178.000
 21
-30.000
 31
0.0
  0
LINE
  8
DieLine
 62
   1
  6
CONTINUOUS
 10
218.000
 20
0.000
 30
0.0
 11
218.000
 21
-30.000
 31
0.0
  0
LINE
  8
DieLine
 62
   1
  6
CONTINUOUS
 10
178.000
 20
-30.000
 30
0.0
 11
218.000
 21
-30.000
 31
0.0
  0
LINE
  8
DieLine
 62
   1
  6
CONTINUOUS
 10
178.000
 20
120.000
 30
0.0
 11
178.000
 21
142.000
 31
0.0
  0
LINE
  8
DieLine
 62
   1
  6
CONTINUOUS
 10
218.000
 20
120.000
 30
0.0
 11
218.000
 21
142.000
 31
0.0
  0
LINE
  8
DieLine
 62
   1
  6
CONTINUOUS
 10
186.000
 20
150.000
 30
0.0
 11
210.000
 21
150.000
 31
0.0
  0
ARC
  8
DieLine
 62
   1
  6
CONTINUOUS
 10
186.000
 20
142.000
 40
8.000
 50
90.000
 51
180.000
  0
ARC
  8
DieLine
 62
   1
  6
CONTINUOUS
 10
210.000
 20
142.000
 40
8.000
 50
0.000
 51
90.000
  0
ENDSEC
  0
EOF
